<mxfile host="app.diagrams.net" modified="2022-08-24T00:29:52.551Z" agent="5.0 (Windows NT 10.0; Win64; x64) AppleWebKit/537.36 (KHTML, like Gecko) Chrome/104.0.0.0 Safari/537.36" etag="ha2T4f5objqB9tZbmh5u" version="20.2.7" type="github">
  <diagram id="2nQSLZeQ-evx_mLYP22o" name="Página-1">
    <mxGraphModel dx="868" dy="482" grid="1" gridSize="10" guides="1" tooltips="1" connect="1" arrows="1" fold="1" page="1" pageScale="1" pageWidth="827" pageHeight="1169" math="0" shadow="0">
      <root>
        <mxCell id="0" />
        <mxCell id="1" parent="0" />
        <mxCell id="CxkrkNixU3NyjpD5iQTs-1" value="UC01&lt;br&gt;Login" style="ellipse;whiteSpace=wrap;html=1;" vertex="1" parent="1">
          <mxGeometry x="210" y="30" width="120" height="80" as="geometry" />
        </mxCell>
        <mxCell id="CxkrkNixU3NyjpD5iQTs-4" value="UC02&lt;br&gt;Buscar categoria" style="ellipse;whiteSpace=wrap;html=1;" vertex="1" parent="1">
          <mxGeometry x="210" y="150" width="120" height="80" as="geometry" />
        </mxCell>
        <mxCell id="CxkrkNixU3NyjpD5iQTs-7" value="Cliente" style="shape=umlActor;verticalLabelPosition=bottom;verticalAlign=top;html=1;outlineConnect=0;" vertex="1" parent="1">
          <mxGeometry x="100" y="160" width="30" height="60" as="geometry" />
        </mxCell>
        <mxCell id="CxkrkNixU3NyjpD5iQTs-8" value="Banco" style="shape=umlActor;verticalLabelPosition=bottom;verticalAlign=top;html=1;outlineConnect=0;" vertex="1" parent="1">
          <mxGeometry x="730" y="160" width="30" height="60" as="geometry" />
        </mxCell>
        <mxCell id="CxkrkNixU3NyjpD5iQTs-10" value="UC03&lt;br&gt;Inserir senha ou biometria" style="ellipse;whiteSpace=wrap;html=1;" vertex="1" parent="1">
          <mxGeometry x="210" y="270" width="120" height="80" as="geometry" />
        </mxCell>
        <mxCell id="CxkrkNixU3NyjpD5iQTs-11" value="UC05&lt;br&gt;Manter cliente" style="ellipse;whiteSpace=wrap;html=1;" vertex="1" parent="1">
          <mxGeometry x="540" y="30" width="120" height="80" as="geometry" />
        </mxCell>
        <mxCell id="CxkrkNixU3NyjpD5iQTs-12" value="UC04&lt;br&gt;Realizar o PIX" style="ellipse;whiteSpace=wrap;html=1;" vertex="1" parent="1">
          <mxGeometry x="210" y="390" width="120" height="80" as="geometry" />
        </mxCell>
        <mxCell id="CxkrkNixU3NyjpD5iQTs-13" value="UC05&lt;br&gt;Oferecer opções de transferência" style="ellipse;whiteSpace=wrap;html=1;" vertex="1" parent="1">
          <mxGeometry x="540" y="150" width="120" height="80" as="geometry" />
        </mxCell>
        <mxCell id="CxkrkNixU3NyjpD5iQTs-14" value="UC06&lt;br&gt;Validar usuário" style="ellipse;whiteSpace=wrap;html=1;" vertex="1" parent="1">
          <mxGeometry x="540" y="270" width="120" height="80" as="geometry" />
        </mxCell>
        <mxCell id="CxkrkNixU3NyjpD5iQTs-15" value="UC07&lt;br&gt;Verificar saldo" style="ellipse;whiteSpace=wrap;html=1;" vertex="1" parent="1">
          <mxGeometry x="540" y="390" width="120" height="80" as="geometry" />
        </mxCell>
        <mxCell id="CxkrkNixU3NyjpD5iQTs-16" value="" style="endArrow=none;html=1;rounded=0;entryX=-0.008;entryY=0.6;entryDx=0;entryDy=0;entryPerimeter=0;" edge="1" parent="1" target="CxkrkNixU3NyjpD5iQTs-1">
          <mxGeometry width="50" height="50" relative="1" as="geometry">
            <mxPoint x="130" y="180" as="sourcePoint" />
            <mxPoint x="180" y="130" as="targetPoint" />
          </mxGeometry>
        </mxCell>
        <mxCell id="CxkrkNixU3NyjpD5iQTs-18" value="" style="endArrow=none;html=1;rounded=0;entryX=0;entryY=0.5;entryDx=0;entryDy=0;" edge="1" parent="1" source="CxkrkNixU3NyjpD5iQTs-7" target="CxkrkNixU3NyjpD5iQTs-4">
          <mxGeometry width="50" height="50" relative="1" as="geometry">
            <mxPoint x="130" y="180" as="sourcePoint" />
            <mxPoint x="180" y="130" as="targetPoint" />
          </mxGeometry>
        </mxCell>
        <mxCell id="CxkrkNixU3NyjpD5iQTs-19" value="" style="endArrow=none;html=1;rounded=0;exitX=1;exitY=1;exitDx=0;exitDy=0;exitPerimeter=0;" edge="1" parent="1" source="CxkrkNixU3NyjpD5iQTs-7">
          <mxGeometry width="50" height="50" relative="1" as="geometry">
            <mxPoint x="160" y="360" as="sourcePoint" />
            <mxPoint x="210" y="310" as="targetPoint" />
          </mxGeometry>
        </mxCell>
        <mxCell id="CxkrkNixU3NyjpD5iQTs-20" value="" style="endArrow=none;html=1;rounded=0;" edge="1" parent="1" source="CxkrkNixU3NyjpD5iQTs-7">
          <mxGeometry width="50" height="50" relative="1" as="geometry">
            <mxPoint x="160" y="480" as="sourcePoint" />
            <mxPoint x="210" y="430" as="targetPoint" />
          </mxGeometry>
        </mxCell>
        <mxCell id="CxkrkNixU3NyjpD5iQTs-21" value="" style="endArrow=none;html=1;rounded=0;exitX=0;exitY=0.3333333333333333;exitDx=0;exitDy=0;exitPerimeter=0;" edge="1" parent="1" source="CxkrkNixU3NyjpD5iQTs-8">
          <mxGeometry width="50" height="50" relative="1" as="geometry">
            <mxPoint x="610" y="130" as="sourcePoint" />
            <mxPoint x="660" y="80" as="targetPoint" />
          </mxGeometry>
        </mxCell>
        <mxCell id="CxkrkNixU3NyjpD5iQTs-22" value="" style="endArrow=none;html=1;rounded=0;" edge="1" parent="1" source="CxkrkNixU3NyjpD5iQTs-8">
          <mxGeometry width="50" height="50" relative="1" as="geometry">
            <mxPoint x="610" y="240" as="sourcePoint" />
            <mxPoint x="660" y="190" as="targetPoint" />
          </mxGeometry>
        </mxCell>
        <mxCell id="CxkrkNixU3NyjpD5iQTs-23" value="" style="endArrow=none;html=1;rounded=0;entryX=0;entryY=1;entryDx=0;entryDy=0;entryPerimeter=0;" edge="1" parent="1" target="CxkrkNixU3NyjpD5iQTs-8">
          <mxGeometry width="50" height="50" relative="1" as="geometry">
            <mxPoint x="660" y="310" as="sourcePoint" />
            <mxPoint x="710" y="260" as="targetPoint" />
          </mxGeometry>
        </mxCell>
        <mxCell id="CxkrkNixU3NyjpD5iQTs-24" value="" style="endArrow=none;html=1;rounded=0;" edge="1" parent="1" target="CxkrkNixU3NyjpD5iQTs-8">
          <mxGeometry width="50" height="50" relative="1" as="geometry">
            <mxPoint x="660" y="430" as="sourcePoint" />
            <mxPoint x="710" y="380" as="targetPoint" />
          </mxGeometry>
        </mxCell>
        <mxCell id="CxkrkNixU3NyjpD5iQTs-25" value="&amp;lt;&amp;lt;include&amp;gt;&amp;gt;" style="html=1;verticalAlign=bottom;labelBackgroundColor=none;endArrow=open;endFill=0;dashed=1;rounded=0;exitX=0.5;exitY=0;exitDx=0;exitDy=0;" edge="1" parent="1" source="CxkrkNixU3NyjpD5iQTs-12" target="CxkrkNixU3NyjpD5iQTs-10">
          <mxGeometry width="160" relative="1" as="geometry">
            <mxPoint x="330" y="210" as="sourcePoint" />
            <mxPoint x="490" y="210" as="targetPoint" />
          </mxGeometry>
        </mxCell>
        <mxCell id="CxkrkNixU3NyjpD5iQTs-27" value="&amp;lt;&amp;lt;include&amp;gt;&amp;gt;" style="html=1;verticalAlign=bottom;labelBackgroundColor=none;endArrow=open;endFill=0;dashed=1;rounded=0;exitX=0.5;exitY=0;exitDx=0;exitDy=0;entryX=0;entryY=0.5;entryDx=0;entryDy=0;" edge="1" parent="1" target="CxkrkNixU3NyjpD5iQTs-15">
          <mxGeometry width="160" relative="1" as="geometry">
            <mxPoint x="330" y="430" as="sourcePoint" />
            <mxPoint x="330" y="390" as="targetPoint" />
          </mxGeometry>
        </mxCell>
        <mxCell id="CxkrkNixU3NyjpD5iQTs-28" value="&amp;lt;&amp;lt;include&amp;gt;&amp;gt;" style="html=1;verticalAlign=bottom;labelBackgroundColor=none;endArrow=open;endFill=0;dashed=1;rounded=0;exitX=0.5;exitY=0;exitDx=0;exitDy=0;entryX=0;entryY=0.5;entryDx=0;entryDy=0;" edge="1" parent="1">
          <mxGeometry width="160" relative="1" as="geometry">
            <mxPoint x="330" y="309.5" as="sourcePoint" />
            <mxPoint x="540" y="309.5" as="targetPoint" />
          </mxGeometry>
        </mxCell>
      </root>
    </mxGraphModel>
  </diagram>
</mxfile>
